<mxfile host="app.diagrams.net" agent="Mozilla/5.0 (Windows NT 10.0; Win64; x64) AppleWebKit/537.36 (KHTML, like Gecko) Chrome/134.0.0.0 Safari/537.36 Edg/134.0.0.0" version="26.1.0">
  <diagram name="Page-1" id="ij-BdujOLyA5VOnO3C2-">
    <mxGraphModel dx="1282" dy="531" grid="1" gridSize="10" guides="1" tooltips="1" connect="1" arrows="1" fold="1" page="1" pageScale="1" pageWidth="850" pageHeight="1100" math="0" shadow="0">
      <root>
        <mxCell id="0" />
        <mxCell id="1" parent="0" />
        <mxCell id="2wqb9rmv_9e_O2gVgY7c-3" value="" style="edgeStyle=orthogonalEdgeStyle;rounded=0;orthogonalLoop=1;jettySize=auto;html=1;" edge="1" parent="1" source="2wqb9rmv_9e_O2gVgY7c-1" target="2wqb9rmv_9e_O2gVgY7c-2">
          <mxGeometry relative="1" as="geometry" />
        </mxCell>
        <mxCell id="2wqb9rmv_9e_O2gVgY7c-1" value="START" style="ellipse;whiteSpace=wrap;html=1;" vertex="1" parent="1">
          <mxGeometry x="60" y="40" width="120" height="80" as="geometry" />
        </mxCell>
        <mxCell id="2wqb9rmv_9e_O2gVgY7c-5" value="" style="edgeStyle=orthogonalEdgeStyle;rounded=0;orthogonalLoop=1;jettySize=auto;html=1;" edge="1" parent="1" source="2wqb9rmv_9e_O2gVgY7c-2" target="2wqb9rmv_9e_O2gVgY7c-4">
          <mxGeometry relative="1" as="geometry" />
        </mxCell>
        <mxCell id="2wqb9rmv_9e_O2gVgY7c-2" value="&lt;div&gt;CALL&lt;/div&gt;uart_init()&lt;br&gt;&amp;nbsp; &amp;nbsp; &amp;nbsp; gpio_btn_and_LED_init()&lt;br&gt;&amp;nbsp; &amp;nbsp; uart_interrupt_init()&lt;br&gt;&amp;nbsp; &amp;nbsp; gpio_interrupt_init()&lt;br&gt;&amp;nbsp; &amp;nbsp; &amp;nbsp;timer_interrupt_init()" style="whiteSpace=wrap;html=1;" vertex="1" parent="1">
          <mxGeometry x="330" y="35" width="170" height="90" as="geometry" />
        </mxCell>
        <mxCell id="2wqb9rmv_9e_O2gVgY7c-9" value="" style="edgeStyle=orthogonalEdgeStyle;rounded=0;orthogonalLoop=1;jettySize=auto;html=1;" edge="1" parent="1" source="2wqb9rmv_9e_O2gVgY7c-4" target="2wqb9rmv_9e_O2gVgY7c-8">
          <mxGeometry relative="1" as="geometry" />
        </mxCell>
        <mxCell id="2wqb9rmv_9e_O2gVgY7c-4" value="call print_game()" style="whiteSpace=wrap;html=1;" vertex="1" parent="1">
          <mxGeometry x="630" y="50" width="120" height="60" as="geometry" />
        </mxCell>
        <mxCell id="2wqb9rmv_9e_O2gVgY7c-11" value="NO" style="edgeStyle=orthogonalEdgeStyle;rounded=0;orthogonalLoop=1;jettySize=auto;html=1;exitX=1;exitY=0.5;exitDx=0;exitDy=0;entryX=1;entryY=0.5;entryDx=0;entryDy=0;" edge="1" parent="1" source="2wqb9rmv_9e_O2gVgY7c-8" target="2wqb9rmv_9e_O2gVgY7c-4">
          <mxGeometry relative="1" as="geometry">
            <Array as="points">
              <mxPoint x="800" y="240" />
              <mxPoint x="800" y="80" />
            </Array>
          </mxGeometry>
        </mxCell>
        <mxCell id="2wqb9rmv_9e_O2gVgY7c-13" value="YES" style="edgeStyle=orthogonalEdgeStyle;rounded=0;orthogonalLoop=1;jettySize=auto;html=1;" edge="1" parent="1" source="2wqb9rmv_9e_O2gVgY7c-8" target="2wqb9rmv_9e_O2gVgY7c-12">
          <mxGeometry relative="1" as="geometry" />
        </mxCell>
        <mxCell id="2wqb9rmv_9e_O2gVgY7c-8" value="check if Character hits &quot; X &quot; or &quot; - &quot; or &quot; | &quot;" style="rhombus;whiteSpace=wrap;html=1;" vertex="1" parent="1">
          <mxGeometry x="630" y="180" width="120" height="120" as="geometry" />
        </mxCell>
        <mxCell id="2wqb9rmv_9e_O2gVgY7c-15" value="" style="edgeStyle=orthogonalEdgeStyle;rounded=0;orthogonalLoop=1;jettySize=auto;html=1;" edge="1" parent="1" source="2wqb9rmv_9e_O2gVgY7c-12" target="2wqb9rmv_9e_O2gVgY7c-14">
          <mxGeometry relative="1" as="geometry" />
        </mxCell>
        <mxCell id="2wqb9rmv_9e_O2gVgY7c-12" value="Call Timer_Handler_fail()" style="whiteSpace=wrap;html=1;" vertex="1" parent="1">
          <mxGeometry x="330" y="200" width="170" height="80" as="geometry" />
        </mxCell>
        <mxCell id="2wqb9rmv_9e_O2gVgY7c-19" style="edgeStyle=orthogonalEdgeStyle;rounded=0;orthogonalLoop=1;jettySize=auto;html=1;exitX=0.5;exitY=1;exitDx=0;exitDy=0;entryX=0.5;entryY=0;entryDx=0;entryDy=0;" edge="1" parent="1" source="2wqb9rmv_9e_O2gVgY7c-14" target="2wqb9rmv_9e_O2gVgY7c-18">
          <mxGeometry relative="1" as="geometry" />
        </mxCell>
        <mxCell id="2wqb9rmv_9e_O2gVgY7c-14" value="Print fail message&amp;nbsp;" style="whiteSpace=wrap;html=1;" vertex="1" parent="1">
          <mxGeometry x="80" y="200" width="150" height="80" as="geometry" />
        </mxCell>
        <mxCell id="2wqb9rmv_9e_O2gVgY7c-18" value="END" style="ellipse;whiteSpace=wrap;html=1;" vertex="1" parent="1">
          <mxGeometry x="95" y="330" width="120" height="80" as="geometry" />
        </mxCell>
      </root>
    </mxGraphModel>
  </diagram>
</mxfile>
